<?xml version="1.0" encoding="UTF-8"?>
<svg version="1.1" xmlns="http://www.w3.org/2000/svg" width="100" height="100">
<path d="M0 0 C15.43264356 9.67168397 25.78552218 22.98868807 30.96875 40.5234375 C32.76906521 48.95398848 32.25826628 57.87666829 32.32348633 66.45776367 C32.34519794 68.85630028 32.38460202 71.25407372 32.42578125 73.65234375 C32.42595497 74.74472603 32.42595497 74.74472603 32.4261322 75.85917664 C32.5168983 80.56287533 33.4106228 83.78816187 35.8671875 87.796875 C38.30599155 89.99966576 40.8948361 91.41685471 43.8671875 92.796875 C43.8671875 94.116875 43.8671875 95.436875 43.8671875 96.796875 C38.40729646 96.5740223 35.59660483 95.26895228 31.4453125 91.7578125 C27.19318922 86.47423357 26.44033413 81.11492493 26.49609375 74.51171875 C26.47869351 72.91210743 26.46110935 71.3124981 26.44335938 69.71289062 C26.43336716 67.23408976 26.42967286 64.75543133 26.43139648 62.27661133 C26.41442073 50.97189206 26.05046988 40.16343975 20.8671875 29.796875 C20.85300781 30.66828125 20.83882813 31.5396875 20.82421875 32.4375 C20.32251035 44.9666503 17.26000153 54.43448002 8.48046875 63.59765625 C-1.50892003 72.00427192 -12.31818849 73.62729762 -24.89013672 73.01025391 C-34.70116506 72.07678572 -42.92790208 66.17002788 -49.1328125 58.796875 C-56.10701684 47.36258887 -58.33346376 35.42606613 -55.33203125 22.29296875 C-51.0430377 10.98830189 -43.61210312 3.81649979 -32.734375 -1.14453125 C-22.79742725 -5.18794392 -9.63258625 -4.74958546 0 0 Z M-25.1328125 5.796875 C-27.28535616 7.93985793 -27.28535616 7.93985793 -28.1328125 10.796875 C-27.50267421 14.65647203 -26.56279909 16.37820384 -23.7578125 19.109375 C-20.66665173 21.24276799 -20.66665173 21.24276799 -17.1328125 21.796875 C-12.89460793 19.54803176 -9.86813065 17.35208515 -8.1328125 12.796875 C-8.89453941 9.26523204 -9.57152662 7.35816088 -12.1328125 4.796875 C-17.06615571 3.65841118 -20.55702779 3.50898265 -25.1328125 5.796875 Z M-46.1328125 23.796875 C-47.33036067 27.38951952 -47.46376208 30.02404974 -47.1328125 33.796875 C-45.73596244 36.4438622 -45.73596244 36.4438622 -43.1328125 37.796875 C-38.96432102 37.87406929 -36.01248392 37.03764499 -32.6328125 34.671875 C-29.79090234 31.99795337 -29.79090234 31.99795337 -29.9453125 28.359375 C-31.42566033 23.91833151 -32.66794143 21.95375753 -36.1328125 18.796875 C-41.50823174 17.59014823 -43.31717227 19.31270723 -46.1328125 23.796875 Z M-2.9453125 21.359375 C-5.39432693 24.75278061 -6.364805 27.54367914 -6.1328125 31.796875 C-2.97897551 35.42378753 -1.11039631 36.51034181 3.4921875 37.859375 C6.86497634 38.08289833 6.86497634 38.08289833 9.3046875 36.296875 C11.44638921 32.87015226 11.34828452 30.78310743 10.8671875 26.796875 C9.50903497 23.52496208 8.36823244 21.29791994 5.8671875 18.796875 C1.5693411 18.03281342 0.32717573 18.37777461 -2.9453125 21.359375 Z M-20.1328125 31.796875 C-20.4628125 33.446875 -20.7928125 35.096875 -21.1328125 36.796875 C-18.6578125 37.291875 -18.6578125 37.291875 -16.1328125 37.796875 C-15.8028125 36.146875 -15.4728125 34.496875 -15.1328125 32.796875 C-16.7828125 32.466875 -18.4328125 32.136875 -20.1328125 31.796875 Z M-39.1328125 47.796875 C-41.33044598 50.5169723 -41.33044598 50.5169723 -41.1953125 53.109375 C-39.58417736 57.18459919 -36.71066383 59.37611602 -33.1328125 61.796875 C-30.61880862 63.10303446 -30.61880862 63.10303446 -28.1328125 62.796875 C-24.79977222 60.90310212 -23.42296376 59.61292541 -22.1328125 55.984375 C-22.1328125 51.78683899 -23.17130012 49.50195394 -25.1328125 45.796875 C-30.10545628 43.31055311 -34.91381644 44.5422209 -39.1328125 47.796875 Z M-12.1953125 46.921875 C-14.27822672 52.80149773 -14.27822672 52.80149773 -12.7578125 58.609375 C-11.31340529 60.66493583 -11.31340529 60.66493583 -10.1328125 61.796875 C-6.26159262 62.24701685 -4.39903581 61.94303682 -0.9453125 60.046875 C2.5066665 57.35348771 2.5066665 57.35348771 4.8671875 53.796875 C4.94942116 50.70692403 4.94942116 50.70692403 3.8671875 47.796875 C0.94441853 45.02483178 -1.20101231 44.34507168 -5.1953125 44.296875 C-9.20266709 44.36341791 -9.20266709 44.36341791 -12.1953125 46.921875 Z " fill="#F95151" transform="translate(56.1328125,3.203125)"/>
</svg>
